# xmcd
#
# Track frame offsets:
#	182
#	12222
#	26665
#	41032
#	56385
#
# Disc length: 987 seconds
#
# Revision: 2740610149
# Processed by: cddbd v1.5.2PL0 Copyright (c) Steve Scherf et al.
# Submitted via: EZCDAudioConverter 8.3.2.1
#
DISCID=3503d905
DTITLE=Lucinda Williams - Passionate Kisses
DYEAR=1989
DGENRE=Country rock
TTITLE0=Passionate Kisses
TTITLE1=Nothing in Rambling
TTITLE2=Goin' Back Home
TTITLE3=Disgusted
TTITLE4=Side of the Road
EXTD=
EXTT0=
EXTT1=
EXTT2=
EXTT3=
EXTT4=
PLAYORDER=
